<svg viewBox="0 0 58 17" fill="none" xmlns="http://www.w3.org/2000/svg">
<path d="M51.0475 16.64C49.6395 16.64 48.4022 16.416 47.3355 15.968C46.2688 15.4987 45.4155 14.8587 44.7755 14.048C44.1355 13.2373 43.7515 12.2987 43.6235 11.232H47.7515C47.8795 11.8507 48.2208 12.384 48.7755 12.832C49.3515 13.2587 50.0875 13.472 50.9835 13.472C51.8795 13.472 52.5302 13.2907 52.9355 12.928C53.3622 12.5653 53.5755 12.1493 53.5755 11.68C53.5755 10.9973 53.2768 10.5387 52.6795 10.304C52.0822 10.048 51.2502 9.80267 50.1835 9.568C49.5008 9.41867 48.8075 9.23733 48.1035 9.024C47.3995 8.81067 46.7488 8.544 46.1515 8.224C45.5755 7.88267 45.1062 7.456 44.7435 6.944C44.3808 6.41067 44.1995 5.76 44.1995 4.992C44.1995 3.584 44.7542 2.4 45.8635 1.44C46.9942 0.479999 48.5728 0 50.5995 0C52.4768 0 53.9702 0.437333 55.0795 1.312C56.2102 2.18667 56.8822 3.392 57.0955 4.928H53.2235C52.9888 3.75467 52.1035 3.168 50.5675 3.168C49.7995 3.168 49.2022 3.31733 48.7755 3.616C48.3702 3.91467 48.1675 4.288 48.1675 4.736C48.1675 5.20533 48.4768 5.57867 49.0955 5.856C49.7142 6.13333 50.5355 6.38933 51.5595 6.624C52.6688 6.88 53.6822 7.168 54.5995 7.488C55.5382 7.78667 56.2848 8.24533 56.8395 8.864C57.3942 9.46133 57.6715 10.3253 57.6715 11.456C57.6928 12.4373 57.4368 13.3227 56.9035 14.112C56.3702 14.9013 55.6022 15.52 54.5995 15.968C53.5968 16.416 52.4128 16.64 51.0475 16.64Z" fill="#fff"/>
<path d="M34.235 16.64C32.827 16.64 31.5897 16.416 30.523 15.968C29.4563 15.4987 28.603 14.8587 27.963 14.048C27.323 13.2373 26.939 12.2987 26.811 11.232H30.939C31.067 11.8507 31.4083 12.384 31.963 12.832C32.539 13.2587 33.275 13.472 34.171 13.472C35.067 13.472 35.7177 13.2907 36.123 12.928C36.5497 12.5653 36.763 12.1493 36.763 11.68C36.763 10.9973 36.4643 10.5387 35.867 10.304C35.2697 10.048 34.4377 9.80267 33.371 9.568C32.6883 9.41867 31.995 9.23733 31.291 9.024C30.587 8.81067 29.9363 8.544 29.339 8.224C28.763 7.88267 28.2937 7.456 27.931 6.944C27.5683 6.41067 27.387 5.76 27.387 4.992C27.387 3.584 27.9417 2.4 29.051 1.44C30.1817 0.479999 31.7603 0 33.787 0C35.6643 0 37.1577 0.437333 38.267 1.312C39.3977 2.18667 40.0697 3.392 40.283 4.928H36.411C36.1763 3.75467 35.291 3.168 33.755 3.168C32.987 3.168 32.3897 3.31733 31.963 3.616C31.5577 3.91467 31.355 4.288 31.355 4.736C31.355 5.20533 31.6643 5.57867 32.283 5.856C32.9017 6.13333 33.723 6.38933 34.747 6.624C35.8563 6.88 36.8697 7.168 37.787 7.488C38.7257 7.78667 39.4723 8.24533 40.027 8.864C40.5817 9.46133 40.859 10.3253 40.859 11.456C40.8803 12.4373 40.6243 13.3227 40.091 14.112C39.5577 14.9013 38.7897 15.52 37.787 15.968C36.7843 16.416 35.6003 16.64 34.235 16.64Z" fill="#fff"/>
<path d="M16.2635 16.64C14.6422 16.64 13.2128 16.288 11.9755 15.584C10.7382 14.88 9.75683 13.8987 9.0315 12.64C8.3275 11.3813 7.97549 9.94133 7.97549 8.32C7.97549 6.69867 8.3275 5.25867 9.0315 4C9.75683 2.74133 10.7382 1.76 11.9755 1.056C13.2128 0.352 14.6422 0 16.2635 0C18.2902 0 19.9968 0.533332 21.3835 1.6C22.7702 2.64533 23.6555 4.096 24.0395 5.952H19.7195C19.5062 5.184 19.0795 4.58667 18.4395 4.16C17.8208 3.712 17.0848 3.488 16.2315 3.488C15.1008 3.488 14.1408 3.91467 13.3515 4.768C12.5622 5.62133 12.1675 6.80533 12.1675 8.32C12.1675 9.83467 12.5622 11.0187 13.3515 11.872C14.1408 12.7253 15.1008 13.152 16.2315 13.152C17.0848 13.152 17.8208 12.9387 18.4395 12.512C19.0795 12.0853 19.5062 11.4773 19.7195 10.688H24.0395C23.6555 12.48 22.7702 13.92 21.3835 15.008C19.9968 16.096 18.2902 16.64 16.2635 16.64Z" fill="#fff"/>
<path d="M2.56 16.48C1.81333 16.48 1.19467 16.2453 0.704 15.776C0.234667 15.3067 0 14.7413 0 14.08C0 13.3973 0.234667 12.8213 0.704 12.352C1.19467 11.8827 1.81333 11.648 2.56 11.648C3.30667 11.648 3.91467 11.8827 4.384 12.352C4.87467 12.8213 5.12 13.3973 5.12 14.08C5.12 14.7413 4.87467 15.3067 4.384 15.776C3.91467 16.2453 3.30667 16.48 2.56 16.48Z" fill="#fff"/>
</svg>
